<svg width="24" height="24" viewBox="0 0 24 24" fill="none" xmlns="http://www.w3.org/2000/svg">
<path d="M16.0001 8L7.00006 17M4.02006 12C3.72707 11.7552 3.4867 11.4536 3.31345 11.1134C3.1402 10.7732 3.03765 10.4014 3.012 10.0205C2.98635 9.63954 3.03813 9.25737 3.1642 8.89699C3.29028 8.53662 3.48804 8.20552 3.74557 7.92366C4.00309 7.64181 4.31504 7.41503 4.6626 7.25702C5.01015 7.09901 5.38611 7.01303 5.7678 7.00428C6.14949 6.99553 6.529 7.06418 6.88343 7.20609C7.23787 7.348 7.55988 7.56024 7.83006 7.83M7.83006 7.83C7.5603 7.55982 7.34806 7.2378 7.20615 6.88337C7.06424 6.52894 6.99559 6.14943 7.00434 5.76774C7.01309 5.38605 7.09907 5.01009 7.25708 4.66254C7.41509 4.31498 7.64187 4.00303 7.92372 3.74551C8.20558 3.48798 8.53668 3.29022 8.89706 3.16414C9.25743 3.03807 9.6396 2.98629 10.0205 3.01194C10.4015 3.03759 10.7732 3.14014 11.1135 3.31339C11.4537 3.48664 11.7553 3.72701 12.0001 4.02C12.2448 3.72701 12.5464 3.48664 12.8867 3.31339C13.2269 3.14014 13.5987 3.03759 13.9796 3.01194C14.3605 2.98629 14.7427 3.03807 15.1031 3.16414C15.4634 3.29022 15.7945 3.48798 16.0764 3.74551C16.3582 4.00303 16.585 4.31498 16.743 4.66254C16.901 5.01009 16.987 5.38605 16.9958 5.76774C17.0045 6.14943 16.9359 6.52894 16.794 6.88337C16.652 7.2378 16.4398 7.55982 16.1701 7.83C16.4402 7.56024 16.7622 7.348 17.1167 7.20609C17.4711 7.06418 17.8506 6.99553 18.2323 7.00428C18.614 7.01303 18.99 7.09901 19.3375 7.25702C19.6851 7.41503 19.997 7.64181 20.2545 7.92366C20.5121 8.20552 20.7098 8.53662 20.8359 8.89699C20.962 9.25737 21.0138 9.63954 20.9881 10.0205C20.9625 10.4014 20.8599 10.7732 20.6867 11.1134C20.5134 11.4536 20.273 11.7552 19.9801 12C20.273 12.2448 20.5134 12.5464 20.6867 12.8866C20.8599 13.2268 20.9625 13.5986 20.9881 13.9795C21.0138 14.3605 20.962 14.7426 20.8359 15.103C20.7098 15.4634 20.5121 15.7945 20.2545 16.0763C19.997 16.3582 19.6851 16.585 19.3375 16.743C18.99 16.901 18.614 16.987 18.2323 16.9957C17.8506 17.0045 17.4711 16.9358 17.1167 16.7939C16.7622 16.652 16.4402 16.4398 16.1701 16.17M7.83006 7.83L16.1701 16.17M16.1701 16.17C16.4398 16.4402 16.652 16.7622 16.794 17.1166C16.9359 17.4711 17.0045 17.8506 16.9958 18.2323C16.987 18.6139 16.901 18.9899 16.743 19.3375C16.585 19.685 16.3582 19.997 16.0764 20.2545C15.7945 20.512 15.4634 20.7098 15.1031 20.8359C14.7427 20.9619 14.3605 21.0137 13.9796 20.9881C13.5987 20.9624 13.2269 20.8599 12.8867 20.6866C12.5464 20.5134 12.2448 20.273 12.0001 19.98C11.7553 20.273 11.4537 20.5134 11.1135 20.6866C10.7732 20.8599 10.4015 20.9624 10.0205 20.9881C9.6396 21.0137 9.25743 20.9619 8.89706 20.8359C8.53668 20.7098 8.20558 20.512 7.92372 20.2545C7.64187 19.997 7.41509 19.685 7.25708 19.3375C7.09907 18.9899 7.01309 18.6139 7.00434 18.2323C6.99559 17.8506 7.06424 17.4711 7.20615 17.1166C7.34806 16.7622 7.5603 16.4402 7.83006 16.17C7.27708 16.6779 6.54499 16.9453 5.79485 16.9134C5.0447 16.8815 4.33795 16.553 3.83006 16C3.32217 15.447 3.05475 14.7149 3.08663 13.9648C3.11851 13.2146 3.44708 12.5079 4.00006 12" stroke="black" stroke-width="1.5" stroke-linecap="round" stroke-linejoin="round"/>
</svg>
