<svg width="28" height="28" viewBox="0 0 28 28" fill="none" xmlns="http://www.w3.org/2000/svg">
<g filter="url(#filter0_f_2046_1052)">
<path d="M-0.162109 14.0596C-0.147262 16.2896 0.48819 18.5905 1.45005 20.448V20.4607C2.14505 21.8097 3.0949 22.8752 4.17677 23.9309L10.711 21.5468C9.47474 20.9188 9.2861 20.534 8.39992 19.8319C7.49433 18.9187 6.81938 17.8704 6.39905 16.6412H6.38212L6.39905 16.6284C6.12252 15.8167 6.09525 14.955 6.08504 14.0596H-0.162109Z" fill="url(#paint0_radial_2046_1052)"/>
</g>
<g filter="url(#filter1_f_2046_1052)">
<path d="M14.3424 -0.13623C13.6966 2.13269 13.9435 4.33816 14.3424 5.6214C15.0882 5.62196 15.8067 5.71086 16.4879 5.88797C18.0496 6.29398 19.1542 7.09366 19.8311 7.72618L24.0201 3.62405C21.5385 1.34874 18.5521 -0.132646 14.3424 -0.13623Z" fill="url(#paint1_radial_2046_1052)"/>
</g>
<g filter="url(#filter2_f_2046_1052)">
<path d="M14.3287 -0.154053C11.1608 -0.154121 8.23613 0.832895 5.83943 2.50099C4.94953 3.12035 4.13289 3.83582 3.40572 4.63144C3.21522 6.41861 4.83176 8.61523 8.03301 8.59704C9.58623 6.79029 11.8834 5.62132 14.4402 5.62132C14.4425 5.62132 14.4448 5.62151 14.4471 5.62152L14.3427 -0.153644C14.338 -0.153647 14.3334 -0.154053 14.3287 -0.154053Z" fill="url(#paint2_radial_2046_1052)"/>
</g>
<g filter="url(#filter3_f_2046_1052)">
<path d="M24.7858 14.7062L21.9582 16.6487C21.8342 17.4104 21.5554 18.1598 21.1474 18.8431C20.6799 19.626 20.102 20.222 19.5097 20.6759C17.739 22.0327 15.6759 22.3121 14.2396 22.3133C12.7551 24.8417 12.4949 26.1081 14.344 28.1487C16.6322 28.1471 18.6608 27.734 20.4501 26.9605C21.7436 26.4014 22.8895 25.6721 23.9271 24.7348C25.298 23.4964 26.3719 21.9645 27.1047 20.2021C27.8376 18.4397 28.2295 16.4468 28.2295 14.2861L24.7858 14.7062Z" fill="url(#paint3_radial_2046_1052)"/>
</g>
<g filter="url(#filter4_f_2046_1052)">
<path d="M14.1348 11.1638V16.9554H27.7387C27.8584 16.1622 28.2541 15.1358 28.2541 14.2861C28.2541 13.2932 28.1544 12.0803 27.9853 11.1638H14.1348Z" fill="#3086FF"/>
</g>
<g filter="url(#filter5_f_2046_1052)">
<path d="M3.47106 4.427C2.63156 5.34553 1.91436 6.37364 1.34571 7.48551C0.37012 9.38707 -0.164062 11.6988 -0.164062 13.9646C-0.164062 13.9965 -0.16142 14.0277 -0.161207 14.0596C0.270852 14.888 5.80691 14.7294 6.08595 14.0596C6.0856 14.0284 6.08208 13.9979 6.08208 13.9666C6.08208 13.0373 6.23908 12.3523 6.52525 11.5121C6.87827 10.4758 7.43104 9.52152 8.13787 8.6993C8.2981 8.49474 8.7255 8.05497 8.85019 7.79118C8.89769 7.69071 8.76396 7.63431 8.75647 7.59895C8.74811 7.55939 8.56881 7.5912 8.52864 7.56174C8.4011 7.46819 8.14853 7.41933 7.99517 7.37591C7.66737 7.28309 7.1241 7.07841 6.82236 6.86623C5.86855 6.19553 4.38006 5.3944 3.47106 4.427Z" fill="url(#paint4_radial_2046_1052)"/>
</g>
<g filter="url(#filter6_f_2046_1052)">
<path d="M6.84346 7.603C9.05524 8.94278 9.6913 6.92673 11.1618 6.29586L8.6038 0.991211C7.66282 1.3867 6.77378 1.87807 5.94889 2.45218C4.71699 3.30959 3.62912 4.35586 2.73047 5.54653L6.84346 7.603Z" fill="url(#paint5_radial_2046_1052)"/>
</g>
<g filter="url(#filter7_f_2046_1052)">
<path d="M7.74229 21.1369C4.77327 22.2088 4.30845 22.2472 4.03516 24.0872C4.55741 24.5968 5.11854 25.0683 5.71483 25.4957C7.31484 26.6426 10.3926 28.1702 14.3287 28.1702C14.3333 28.1702 14.3378 28.1698 14.3424 28.1698V22.2111C14.3394 22.2111 14.336 22.2113 14.333 22.2113C12.8591 22.2113 11.6812 21.8241 10.4736 21.1509C10.1758 20.9849 9.63562 21.4306 9.36102 21.2314C8.98227 20.9565 8.07079 21.4682 7.74229 21.1369Z" fill="url(#paint6_radial_2046_1052)"/>
</g>
<g opacity="0.5" filter="url(#filter8_f_2046_1052)">
<path d="M12.6035 22.0234V28.0666C13.1543 28.1311 13.7274 28.1702 14.3287 28.1702C14.9314 28.1702 15.5145 28.1393 16.0811 28.0824V22.0642C15.4462 22.1727 14.8481 22.2113 14.3329 22.2113C13.7396 22.2113 13.1626 22.1423 12.6035 22.0234Z" fill="url(#paint7_linear_2046_1052)"/>
</g>
<defs>
<filter id="filter0_f_2046_1052" x="-0.436322" y="13.7854" width="11.4215" height="10.4198" filterUnits="userSpaceOnUse" color-interpolation-filters="sRGB">
<feFlood flood-opacity="0" result="BackgroundImageFix"/>
<feBlend mode="normal" in="SourceGraphic" in2="BackgroundImageFix" result="shape"/>
<feGaussianBlur stdDeviation="0.137106" result="effect1_foregroundBlur_2046_1052"/>
</filter>
<filter id="filter1_f_2046_1052" x="13.6711" y="-0.410443" width="10.6226" height="8.41073" filterUnits="userSpaceOnUse" color-interpolation-filters="sRGB">
<feFlood flood-opacity="0" result="BackgroundImageFix"/>
<feBlend mode="normal" in="SourceGraphic" in2="BackgroundImageFix" result="shape"/>
<feGaussianBlur stdDeviation="0.137106" result="effect1_foregroundBlur_2046_1052"/>
</filter>
<filter id="filter2_f_2046_1052" x="3.11641" y="-0.428266" width="11.6051" height="9.29965" filterUnits="userSpaceOnUse" color-interpolation-filters="sRGB">
<feFlood flood-opacity="0" result="BackgroundImageFix"/>
<feBlend mode="normal" in="SourceGraphic" in2="BackgroundImageFix" result="shape"/>
<feGaussianBlur stdDeviation="0.137106" result="effect1_foregroundBlur_2046_1052"/>
</filter>
<filter id="filter3_f_2046_1052" x="12.7668" y="14.0119" width="15.7359" height="14.411" filterUnits="userSpaceOnUse" color-interpolation-filters="sRGB">
<feFlood flood-opacity="0" result="BackgroundImageFix"/>
<feBlend mode="normal" in="SourceGraphic" in2="BackgroundImageFix" result="shape"/>
<feGaussianBlur stdDeviation="0.137106" result="effect1_foregroundBlur_2046_1052"/>
</filter>
<filter id="filter4_f_2046_1052" x="13.8606" y="10.8896" width="14.6676" height="6.33993" filterUnits="userSpaceOnUse" color-interpolation-filters="sRGB">
<feFlood flood-opacity="0" result="BackgroundImageFix"/>
<feBlend mode="normal" in="SourceGraphic" in2="BackgroundImageFix" result="shape"/>
<feGaussianBlur stdDeviation="0.137106" result="effect1_foregroundBlur_2046_1052"/>
</filter>
<filter id="filter5_f_2046_1052" x="-0.438275" y="4.15279" width="9.57382" height="10.7445" filterUnits="userSpaceOnUse" color-interpolation-filters="sRGB">
<feFlood flood-opacity="0" result="BackgroundImageFix"/>
<feBlend mode="normal" in="SourceGraphic" in2="BackgroundImageFix" result="shape"/>
<feGaussianBlur stdDeviation="0.137106" result="effect1_foregroundBlur_2046_1052"/>
</filter>
<filter id="filter6_f_2046_1052" x="0.802639" y="-0.936618" width="12.2873" height="10.9177" filterUnits="userSpaceOnUse" color-interpolation-filters="sRGB">
<feFlood flood-opacity="0" result="BackgroundImageFix"/>
<feBlend mode="normal" in="SourceGraphic" in2="BackgroundImageFix" result="shape"/>
<feGaussianBlur stdDeviation="0.963915" result="effect1_foregroundBlur_2046_1052"/>
</filter>
<filter id="filter7_f_2046_1052" x="3.76094" y="20.8388" width="10.8551" height="7.60555" filterUnits="userSpaceOnUse" color-interpolation-filters="sRGB">
<feFlood flood-opacity="0" result="BackgroundImageFix"/>
<feBlend mode="normal" in="SourceGraphic" in2="BackgroundImageFix" result="shape"/>
<feGaussianBlur stdDeviation="0.137106" result="effect1_foregroundBlur_2046_1052"/>
</filter>
<filter id="filter8_f_2046_1052" x="12.3293" y="21.7492" width="4.02694" height="6.69515" filterUnits="userSpaceOnUse" color-interpolation-filters="sRGB">
<feFlood flood-opacity="0" result="BackgroundImageFix"/>
<feBlend mode="normal" in="SourceGraphic" in2="BackgroundImageFix" result="shape"/>
<feGaussianBlur stdDeviation="0.137106" result="effect1_foregroundBlur_2046_1052"/>
</filter>
<radialGradient id="paint0_radial_2046_1052" cx="0" cy="0" r="1" gradientTransform="matrix(-0.581842 -13.9439 20.9196 -0.836761 10.5802 23.7209)" gradientUnits="userSpaceOnUse">
<stop offset="0.141612" stop-color="#1ABD4D"/>
<stop offset="0.247515" stop-color="#6EC30D"/>
<stop offset="0.311547" stop-color="#8AC502"/>
<stop offset="0.366013" stop-color="#A2C600"/>
<stop offset="0.445673" stop-color="#C8C903"/>
<stop offset="0.540305" stop-color="#EBCB03"/>
<stop offset="0.615636" stop-color="#F7CD07"/>
<stop offset="0.699345" stop-color="#FDCD04"/>
<stop offset="0.771242" stop-color="#FDCE05"/>
<stop offset="0.860566" stop-color="#FFCE0A"/>
</radialGradient>
<radialGradient id="paint1_radial_2046_1052" cx="0" cy="0" r="1" gradientTransform="matrix(9.88128 -2.37483e-05 -1.38885e-05 12.4941 23.6282 7.42937)" gradientUnits="userSpaceOnUse">
<stop offset="0.408458" stop-color="#FB4E5A"/>
<stop offset="1" stop-color="#FF4540"/>
</radialGradient>
<radialGradient id="paint2_radial_2046_1052" cx="0" cy="0" r="1" gradientTransform="matrix(-13.8444 7.50741 10.4052 18.3936 18.2323 -1.96262)" gradientUnits="userSpaceOnUse">
<stop offset="0.231273" stop-color="#FF4541"/>
<stop offset="0.311547" stop-color="#FF4540"/>
<stop offset="0.457516" stop-color="#FF4640"/>
<stop offset="0.540305" stop-color="#FF473F"/>
<stop offset="0.699346" stop-color="#FF5138"/>
<stop offset="0.771242" stop-color="#FF5B33"/>
<stop offset="0.860566" stop-color="#FF6C29"/>
<stop offset="1" stop-color="#FF8C18"/>
</radialGradient>
<radialGradient id="paint3_radial_2046_1052" cx="0" cy="0" r="1" gradientTransform="matrix(-25.1072 -32.0888 -12.0979 9.07377 14.5499 26.3365)" gradientUnits="userSpaceOnUse">
<stop offset="0.131546" stop-color="#0CBA65"/>
<stop offset="0.209784" stop-color="#0BB86D"/>
<stop offset="0.297297" stop-color="#09B479"/>
<stop offset="0.396257" stop-color="#08AD93"/>
<stop offset="0.477124" stop-color="#0AA6A9"/>
<stop offset="0.568425" stop-color="#0D9CC6"/>
<stop offset="0.667385" stop-color="#1893DD"/>
<stop offset="0.768727" stop-color="#258BF1"/>
<stop offset="0.858506" stop-color="#3086FF"/>
</radialGradient>
<radialGradient id="paint4_radial_2046_1052" cx="0" cy="0" r="1" gradientTransform="matrix(-1.77678 14.9942 21.1751 2.4053 13.1162 2.49049)" gradientUnits="userSpaceOnUse">
<stop offset="0.366013" stop-color="#FF4E3A"/>
<stop offset="0.457516" stop-color="#FF8A1B"/>
<stop offset="0.540305" stop-color="#FFA312"/>
<stop offset="0.615636" stop-color="#FFB60C"/>
<stop offset="0.771242" stop-color="#FFCD0A"/>
<stop offset="0.860566" stop-color="#FECF0A"/>
<stop offset="0.915033" stop-color="#FECF08"/>
<stop offset="1" stop-color="#FDCD01"/>
</radialGradient>
<radialGradient id="paint5_radial_2046_1052" cx="0" cy="0" r="1" gradientTransform="matrix(-5.13581 5.56124 -16.0209 -14.1827 10.6182 2.33504)" gradientUnits="userSpaceOnUse">
<stop offset="0.315904" stop-color="#FF4C3C"/>
<stop offset="0.603818" stop-color="#FF692C"/>
<stop offset="0.726837" stop-color="#FF7825"/>
<stop offset="0.884534" stop-color="#FF8D1B"/>
<stop offset="1" stop-color="#FF9F13"/>
</radialGradient>
<radialGradient id="paint6_radial_2046_1052" cx="0" cy="0" r="1" gradientTransform="matrix(-13.8444 -7.5074 10.4052 -18.3936 18.2319 29.8936)" gradientUnits="userSpaceOnUse">
<stop offset="0.231273" stop-color="#0FBC5F"/>
<stop offset="0.311547" stop-color="#0FBC5F"/>
<stop offset="0.366013" stop-color="#0FBC5E"/>
<stop offset="0.457516" stop-color="#0FBC5D"/>
<stop offset="0.540305" stop-color="#12BC58"/>
<stop offset="0.699346" stop-color="#28BF3C"/>
<stop offset="0.771242" stop-color="#38C02B"/>
<stop offset="0.860566" stop-color="#52C218"/>
<stop offset="0.915033" stop-color="#67C30F"/>
<stop offset="1" stop-color="#86C504"/>
</radialGradient>
<linearGradient id="paint7_linear_2046_1052" x1="12.6035" y1="25.0968" x2="16.0811" y2="25.0968" gradientUnits="userSpaceOnUse">
<stop stop-color="#0FBC5C"/>
<stop offset="1" stop-color="#0CBA65"/>
</linearGradient>
</defs>
</svg>
