<svg width="24" height="24" viewBox="0 0 24 24" fill="none" xmlns="http://www.w3.org/2000/svg">
<path d="M11.9998 1.25C12.8659 1.25 13.6405 1.52703 14.4763 1.99609C15.2862 2.45058 16.2147 3.12112 17.3816 3.96484L18.8904 5.05664C19.8265 5.73348 20.5744 6.27401 21.1385 6.77441C21.721 7.29123 22.1569 7.80702 22.4334 8.45508C22.7104 9.10463 22.7782 9.77046 22.741 10.5381C22.7051 11.2789 22.5675 12.1726 22.3963 13.2871L22.0808 15.3389C21.8375 16.9225 21.6438 18.1836 21.3592 19.166C21.0648 20.1819 20.6502 20.9889 19.909 21.6055C19.1708 22.2194 18.2907 22.4926 17.2166 22.623C16.1718 22.7499 14.8538 22.75 13.1892 22.75H10.8113C9.14636 22.75 7.82793 22.75 6.78299 22.623C5.70898 22.4926 4.82969 22.2193 4.09158 21.6055C3.35033 20.9889 2.93578 20.182 2.64139 19.166C2.3567 18.1835 2.16209 16.9226 1.91873 15.3389L1.60428 13.2871C1.433 12.1726 1.29542 11.2789 1.25955 10.5381C1.22239 9.77046 1.28915 9.10463 1.56619 8.45508C1.84263 7.80695 2.27858 7.29127 2.86112 6.77441C3.42528 6.2739 4.17373 5.73368 5.11014 5.05664L6.61893 3.96484C7.78581 3.12113 8.71435 2.45055 9.5242 1.99609C10.3599 1.52715 11.1339 1.25004 11.9998 1.25ZM9.99979 17C9.4476 17.0001 8.99979 17.4478 8.99979 18C8.99979 18.5522 9.4476 18.9999 9.99979 19H13.9998C14.5521 19 14.9998 18.5523 14.9998 18C14.9998 17.4477 14.5521 17 13.9998 17H9.99979Z" fill="white"/>
</svg>
