<svg width="31" height="31" viewBox="0 0 31 31" fill="none" xmlns="http://www.w3.org/2000/svg">
<path d="M20.4725 5.11795H23.0315C23.7103 5.11795 24.3612 5.38757 24.8411 5.86748C25.321 6.3474 25.5906 6.99831 25.5906 7.67701V25.5904C25.5906 26.2691 25.321 26.92 24.8411 27.3999C24.3612 27.8798 23.7103 28.1494 23.0315 28.1494H7.67722C6.99852 28.1494 6.34761 27.8798 5.86769 27.3999C5.38778 26.92 5.11816 26.2691 5.11816 25.5904V7.67701C5.11816 6.99831 5.38778 6.3474 5.86769 5.86748C6.34761 5.38757 6.99852 5.11795 7.67722 5.11795H10.2363M11.5158 17.9132L14.0749 20.4723L19.193 15.3542M11.5158 2.5589H19.193C19.8996 2.5589 20.4725 3.13176 20.4725 3.83843V6.39748C20.4725 7.10415 19.8996 7.67701 19.193 7.67701H11.5158C10.8091 7.67701 10.2363 7.10415 10.2363 6.39748V3.83843C10.2363 3.13176 10.8091 2.5589 11.5158 2.5589Z" stroke="#009966" stroke-width="2.55906" stroke-linecap="round" stroke-linejoin="round"/>
</svg>
